<svg viewBox="0 0 920 495" xmlns="http://www.w3.org/2000/svg" font-family="-apple-system,BlinkMacSystemFont,'Segoe UI',Helvetica,Arial,sans-serif">
  <defs>
    <marker id="arrow" viewBox="0 0 10 10" refX="9" refY="5" markerWidth="7" markerHeight="7" orient="auto-start-reverse"><path d="M0,0 L10,5 L0,10 z" fill="#6b7280"/></marker>
    <marker id="arrowDashed" viewBox="0 0 10 10" refX="9" refY="5" markerWidth="7" markerHeight="7" orient="auto-start-reverse"><path d="M0,0 L10,5 L0,10 z" fill="#9ca3af"/></marker>
    <marker id="arrowAmber" viewBox="0 0 10 10" refX="9" refY="5" markerWidth="7" markerHeight="7" orient="auto-start-reverse"><path d="M0,0 L10,5 L0,10 z" fill="#e5a00d"/></marker>
  </defs>
  <rect x="0" y="0" width="920" height="495" fill="#0d1117" rx="12"/>
  <rect x="30" y="150" width="160" height="90" rx="10" fill="#e5a00d" opacity="0.15" stroke="#e5a00d" stroke-width="1.5"/>
  <text x="110" y="188" text-anchor="middle" fill="#e5a00d" font-size="15" font-weight="700">Plex Media</text>
  <text x="110" y="206" text-anchor="middle" fill="#e5a00d" font-size="15" font-weight="700">Server</text>
  <text x="110" y="225" text-anchor="middle" fill="#8b949e" font-size="10.5">Custom Metadata Provider</text>
  <rect x="300" y="90" width="300" height="270" rx="12" fill="#161b22" stroke="#30363d" stroke-width="1.5"/>
  <text x="450" y="118" text-anchor="middle" fill="#c9d1d9" font-size="15" font-weight="700">kinopoisk-provider</text>
  <text x="450" y="135" text-anchor="middle" fill="#8b949e" font-size="10.5">Docker-контейнер, FastAPI</text>
  <rect x="320" y="150" width="260" height="34" rx="7" fill="#1f6feb" opacity="0.15" stroke="#1f6feb" stroke-width="1"/>
  <text x="450" y="171" text-anchor="middle" fill="#79c0ff" font-size="12">main.py — эндпоинты /movie/...</text>
  <rect x="320" y="194" width="260" height="34" rx="7" fill="#1f6feb" opacity="0.15" stroke="#1f6feb" stroke-width="1"/>
  <text x="450" y="215" text-anchor="middle" fill="#79c0ff" font-size="12">poiskkino_mapper.py — карточка фильма</text>
  <rect x="320" y="238" width="260" height="34" rx="7" fill="#1f6feb" opacity="0.15" stroke="#1f6feb" stroke-width="1"/>
  <text x="450" y="259" text-anchor="middle" fill="#79c0ff" font-size="12">tmdb_client.py — фото актёров</text>
  <rect x="320" y="282" width="260" height="34" rx="7" fill="#1f6feb" opacity="0.15" stroke="#1f6feb" stroke-width="1"/>
  <text x="450" y="303" text-anchor="middle" fill="#79c0ff" font-size="12">image-proxy — раздача TMDB-фото</text>
  <text x="450" y="340" text-anchor="middle" fill="#8b949e" font-size="10">порт 8384</text>
  <rect x="700" y="60" width="190" height="90" rx="10" fill="#3fb950" opacity="0.15" stroke="#3fb950" stroke-width="1.5"/>
  <text x="795" y="98" text-anchor="middle" fill="#3fb950" font-size="15" font-weight="700">poiskkino.dev</text>
  <text x="795" y="116" text-anchor="middle" fill="#8b949e" font-size="10.5">Кинопоиск + IMDb</text>
  <text x="795" y="131" text-anchor="middle" fill="#8b949e" font-size="10.5">агрегатор</text>
  <rect x="700" y="330" width="190" height="90" rx="10" fill="#01b4e4" opacity="0.15" stroke="#01b4e4" stroke-width="1.5"/>
  <text x="795" y="368" text-anchor="middle" fill="#01b4e4" font-size="15" font-weight="700">TMDB</text>
  <text x="795" y="386" text-anchor="middle" fill="#8b949e" font-size="10.5">фото нероссийских</text>
  <text x="795" y="401" text-anchor="middle" fill="#8b949e" font-size="10.5">фильмов, опционально</text>
  <rect x="480" y="405" width="180" height="55" rx="9" fill="#161b22" stroke="#6b7280" stroke-width="1" stroke-dasharray="4 3"/>
  <text x="570" y="428" text-anchor="middle" fill="#9ca3af" font-size="11" font-weight="600">hysteria-proxy</text>
  <text x="570" y="443" text-anchor="middle" fill="#8b949e" font-size="9.5">sidecar, если TMDB заблокирован</text>
  <path d="M190,180 L300,180" stroke="#6b7280" stroke-width="1.5" fill="none" marker-end="url(#arrow)"/>
  <text x="245" y="168" text-anchor="middle" fill="#8b949e" font-size="10">HTTP</text>
  <path d="M600,120 L700,105" stroke="#6b7280" stroke-width="1.5" fill="none" marker-end="url(#arrow)"/>
  <text x="668" y="98" text-anchor="middle" fill="#8b949e" font-size="10">API-ключ</text>
  <path d="M600,260 L700,375" stroke="#6b7280" stroke-width="1.5" fill="none" marker-end="url(#arrow)"/>
  <text x="695" y="300" text-anchor="middle" fill="#8b949e" font-size="10">TMDB-ключ</text>
  <path d="M450,360 L450,382 L570,382 L570,405" stroke="#9ca3af" stroke-width="1.3" fill="none" stroke-dasharray="4 3" marker-end="url(#arrowDashed)"/>
  <path d="M660,432 L700,395" stroke="#9ca3af" stroke-width="1.3" fill="none" stroke-dasharray="4 3" marker-end="url(#arrowDashed)"/>
  <text x="765" y="470" text-anchor="middle" fill="#8b949e" font-size="9.5">если TMDB заблокирован</text>
  <path d="M320,300 C 250,300 160,260 130,240" stroke="#e5a00d" stroke-width="1.3" fill="none" stroke-dasharray="3 3" marker-end="url(#arrowAmber)"/>
  <text x="215" y="288" text-anchor="middle" fill="#e5a00d" font-size="9.5">/image-proxy (фото)</text>
</svg>
